<svg height="512" viewBox="0 0 512 512" width="512" xmlns="http://www.w3.org/2000/svg" xmlns:xlink="http://www.w3.org/1999/xlink"><linearGradient id="New_Gradient_Swatch_21" gradientUnits="userSpaceOnUse" x1="4" x2="508" y1="200.132" y2="200.132"><stop offset=".011" stop-color="#fdecbf"/><stop offset="1" stop-color="#fef9ea"/></linearGradient><linearGradient id="New_Gradient_Swatch_20" gradientUnits="userSpaceOnUse" x1="4" x2="508" y1="200.132" y2="200.132"><stop offset=".011" stop-color="#fce6aa"/><stop offset="1" stop-color="#fdf3d4"/></linearGradient><linearGradient id="New_Gradient_Swatch_20-2" x2="508" xlink:href="#New_Gradient_Swatch_20" y1="200.133" y2="200.133"/><linearGradient id="New_Gradient_Swatch_8" gradientUnits="userSpaceOnUse" x1="52" x2="460" y1="200.116" y2="200.116"><stop offset=".011" stop-color="#fad46a"/><stop offset="1" stop-color="#fce6aa"/></linearGradient><linearGradient id="New_Gradient_Swatch_5" gradientUnits="userSpaceOnUse" x1="52" x2="460" y1="192.141" y2="192.141"><stop offset=".011" stop-color="#f8c73f"/><stop offset="1" stop-color="#fada7f"/></linearGradient><linearGradient id="New_Gradient_Swatch_5-2" x2="460" xlink:href="#New_Gradient_Swatch_5" y1="200.114" y2="200.114"/><linearGradient id="New_Gradient_Swatch_13" gradientUnits="userSpaceOnUse" x1="326.503" x2="365.436" y1="450.784" y2="411.85"><stop offset="0" stop-color="#d46669"/><stop offset="1" stop-color="#dd888a"/></linearGradient><linearGradient id="New_Gradient_Swatch_11" gradientUnits="userSpaceOnUse" x1="126.7" x2="301.673" y1="386.586" y2="211.613"><stop offset=".011" stop-color="#60c6be"/><stop offset="1" stop-color="#80d1cb"/></linearGradient><linearGradient id="New_Gradient_Swatch_22" gradientUnits="userSpaceOnUse" x1="146.49" x2="281.884" y1="366.796" y2="231.403"><stop offset=".011" stop-color="#dcdce3"/><stop offset="1" stop-color="#ededf1"/></linearGradient><g id="_24-search_map" data-name="24-search map"><g id="gradient"><path d="m499.767 80.738-121-40a12 12 0 0 0 -7.59.019l-115.193 38.721-116.189-38.73a11.989 11.989 0 0 0 -7.59 0l-120 40a12 12 0 0 0 -8.205 11.384v256a12 12 0 0 0 15.8 11.384l116.2-38.735 116.205 38.735a11.992 11.992 0 0 0 7.618-.01l115.209-38.725 117.2 38.745a12 12 0 0 0 15.768-11.394v-256a12 12 0 0 0 -8.233-11.394z" fill="url(#New_Gradient_Swatch_21)"/><path d="m132.205 40.748-120 40a12 12 0 0 0 -8.205 11.384v256a12 12 0 0 0 15.8 11.384l116.2-38.735v-280.649a11.992 11.992 0 0 0 -3.795.616z" fill="url(#New_Gradient_Swatch_20)"/><path d="m371.177 40.757-115.177 38.715v280.659a11.967 11.967 0 0 0 3.823-.625l115.209-38.725.968.32v-280.925a12 12 0 0 0 -4.823.581z" fill="url(#New_Gradient_Swatch_20-2)"/><path d="m451.767 115.425-72.874-24.09a12 12 0 0 0 -7.588.018l-.126.043h-.007l-115.124 38.704-116.253-38.756c-.1-.033-.2-.05-.3-.081-.236-.072-.474-.134-.714-.191-.221-.053-.442-.1-.665-.142-.241-.043-.482-.075-.724-.1-.226-.026-.451-.049-.677-.063-.243-.014-.485-.018-.728-.018-.227 0-.453 0-.679.017-.242.014-.483.039-.724.067s-.454.058-.68.1-.468.094-.7.15-.459.115-.686.183c-.1.032-.208.05-.311.084l-72 24a12 12 0 0 0 -8.207 11.378v154.808a12 12 0 0 0 15.8 11.384l68.2-22.735 116.141 38.715a11.966 11.966 0 0 0 3.776.605 12.315 12.315 0 0 0 2.961-.362c.124-.03.245-.072.368-.107.192-.054.386-.1.575-.167l115.081-38.682 69.331 22.913a12 12 0 0 0 15.767-11.39v-154.891a12 12 0 0 0 -8.233-11.394z" fill="url(#New_Gradient_Swatch_8)"/><path d="m135.986 90.745c-.227 0-.453 0-.679.017-.242.014-.483.039-.724.067s-.454.058-.68.1-.468.094-.7.15-.459.115-.686.183c-.1.032-.208.05-.311.084l-72 24a12 12 0 0 0 -8.206 11.382v154.808a12 12 0 0 0 15.8 11.384l68.2-22.735v-179.439z" fill="url(#New_Gradient_Swatch_5)"/><path d="m371.305 91.353-.126.043h-.007l-115.124 38.704-.048-.016v179.416a12.246 12.246 0 0 0 2.878-.356c.124-.03.245-.072.368-.107.192-.054.386-.1.575-.167l115.081-38.682 1.1.362v-179.787a11.994 11.994 0 0 0 -4.697.59z" fill="url(#New_Gradient_Swatch_5-2)"/><path d="m312.112 369.175-28.285 28.285 81.69 92.306a12 12 0 0 0 17.471.532l21.963-21.962a12 12 0 0 0 -.533-17.472z" fill="url(#New_Gradient_Swatch_13)"/><circle cx="214.187" cy="299.1" fill="url(#New_Gradient_Swatch_11)" r="123.783"/><circle cx="214.187" cy="299.099" fill="url(#New_Gradient_Swatch_22)" r="95.783"/></g></g></svg>